<svg xmlns="http://www.w3.org/2000/svg" width="1536" height="491" viewBox="0 0 1536 491" version="1.1"><path d="M 532.024 153.603 C 516.039 157.899, 508.613 168.616, 508.536 187.500 C 508.474 202.862, 513.464 212.144, 524.751 217.667 C 530.228 220.346, 531.196 220.475, 549.622 220.979 C 566.495 221.440, 569.041 221.727, 570.859 223.372 C 573.783 226.019, 575.340 231.503, 574.632 236.665 C 573.121 247.695, 572.108 248, 537.032 248 C 509 248, 509 248, 509 259.547 C 509 271.094, 509 271.094, 544.750 270.797 C 580.500 270.500, 580.500 270.500, 586 267.887 C 593.213 264.461, 598.451 259.011, 601.178 252.098 C 603.025 247.416, 603.395 244.455, 603.439 234 C 603.486 222.575, 603.268 221.027, 600.902 216 C 597.796 209.402, 593.250 204.734, 586.500 201.211 C 581.784 198.749, 580.420 198.566, 562.500 197.987 C 552.050 197.649, 542.754 197.032, 541.842 196.615 C 538.628 195.145, 536.598 187.040, 538.090 181.637 C 539.774 175.538, 542.351 175, 569.901 175 C 594 175, 594 175, 594 163.500 C 594 152, 594 152, 565.750 152.066 C 544.199 152.116, 536.201 152.481, 532.024 153.603 M 713 213 C 713 271, 713 271, 727.500 271 C 742 271, 742 271, 742.015 242.250 C 742.025 221.287, 742.368 212.823, 743.279 211 C 745.830 205.895, 754.039 203.772, 762.330 206.075 C 765.434 206.937, 766.519 207.930, 768.058 211.319 C 769.774 215.099, 769.958 218.159, 769.978 243.250 C 770 271, 770 271, 784.563 271 C 799.125 271, 799.125 271, 798.768 238.750 C 798.460 210.974, 798.166 205.857, 796.651 201.867 C 794.274 195.608, 789.272 190.001, 783.379 186.992 C 778.843 184.675, 777.482 184.500, 764 184.500 C 750.758 184.500, 749.170 184.695, 745.693 186.750 C 743.599 187.988, 741.799 189.001, 741.693 189.001 C 741.587 189.002, 741.642 181.352, 741.816 172.001 C 742.132 155, 742.132 155, 727.566 155 C 713 155, 713 155, 713 213 M 613.501 184.833 C 613.225 185.108, 613 210.683, 613 241.667 C 613 298, 613 298, 627.250 298.002 C 641.500 298.003, 641.500 298.003, 641.197 284.576 C 640.894 271.149, 640.894 271.149, 661.197 270.824 C 679.886 270.526, 681.898 270.317, 686.500 268.199 C 692.826 265.287, 697.449 260.870, 700.839 254.500 C 703.483 249.533, 703.500 249.360, 703.500 228 C 703.500 208.148, 703.336 206.146, 701.363 201.878 C 698.300 195.254, 692.789 189.602, 686.742 186.881 C 681.966 184.732, 680.123 184.521, 666 184.511 C 650.307 184.500, 649.941 184.564, 641.750 188.781 C 641.337 188.993, 641 187.975, 641 186.519 C 641 183.871, 641 183.871, 627.501 184.101 C 620.076 184.228, 613.776 184.557, 613.501 184.833 M 800 184.802 C 800 185.302, 802.429 191.514, 805.397 198.606 C 825.449 246.509, 835.958 272.945, 835.463 274.235 C 834.463 276.843, 830.156 278, 821.453 278 C 813 278, 813 278, 813 288 C 813 298, 813 298, 828.750 297.978 C 847.107 297.952, 850.158 297.051, 856.539 289.763 C 859.545 286.329, 861.551 282.258, 864.861 272.870 C 869.051 260.985, 886.035 214.669, 893.383 195.086 C 895.326 189.908, 896.696 185.318, 896.429 184.885 C 896.162 184.453, 889.346 184.189, 881.282 184.299 C 866.622 184.500, 866.622 184.500, 858.095 212.887 C 849.568 241.274, 849.568 241.274, 840.733 213.887 C 835.874 198.824, 831.738 186.011, 831.543 185.414 C 831.102 184.062, 800 183.458, 800 184.802 M 918.500 184.900 C 910.725 186.884, 903.976 192.224, 900.201 199.380 C 897.579 204.352, 897.491 205.063, 897.159 224 C 896.945 236.255, 897.243 245.421, 897.963 248.670 C 899.423 255.263, 905.149 261.947, 912.359 265.475 C 921.616 270.004, 943.234 270.023, 952.279 265.511 C 956.201 263.554, 956 263.443, 956 267.566 C 956 277.045, 953.076 278, 924.032 278 C 901 278, 901 278, 901 288.052 C 901 298.104, 901 298.104, 932.750 297.802 C 964.225 297.503, 964.542 297.479, 969.317 295.039 C 976.046 291.602, 981.215 285.639, 983.347 278.854 C 984.932 273.809, 985.085 269.552, 984.787 238.854 C 984.494 208.703, 984.239 204.038, 982.704 200.728 C 980.017 194.934, 974.527 189.485, 968.742 186.870 C 963.814 184.642, 962.240 184.489, 942.500 184.317 C 930.950 184.217, 920.150 184.479, 918.500 184.900 M 995.584 184.750 C 995.263 185.071, 995 204.608, 995 228.167 C 995 271, 995 271, 1009 271 C 1023 271, 1023 271, 1023.066 259.250 C 1023.301 217.265, 1023.480 213.443, 1025.345 210.596 C 1029.477 204.290, 1043.403 202.950, 1048.794 208.338 C 1051.500 211.043, 1051.500 211.043, 1051.792 241.021 C 1052.084 271, 1052.084 271, 1066.042 271 C 1080 271, 1080 271, 1080.056 243.250 C 1080.120 211.917, 1080.515 209.492, 1086 206.752 C 1090.396 204.556, 1096.840 204.499, 1099.883 206.631 C 1104.581 209.921, 1105 212.895, 1105 242.968 C 1105 271, 1105 271, 1119.049 271 C 1133.099 271, 1133.099 271, 1132.799 237.250 C 1132.500 203.500, 1132.500 203.500, 1129.799 198.380 C 1124.435 188.211, 1118.115 184.942, 1102.500 184.259 C 1089.747 183.701, 1085.208 184.650, 1078.260 189.325 C 1073.376 192.612, 1073.376 192.612, 1068.620 189.334 C 1062.250 184.944, 1058.359 184.012, 1046.376 184.006 C 1035.392 184, 1029.187 185.536, 1025.247 189.238 C 1022.937 191.408, 1022.937 191.408, 1023.219 187.954 C 1023.500 184.500, 1023.500 184.500, 1009.834 184.333 C 1002.317 184.241, 995.904 184.429, 995.584 184.750 M 1165.734 185.088 C 1156.688 187.219, 1149.741 192.939, 1145.801 201.500 C 1143.691 206.084, 1143.473 208.142, 1143.175 226.236 C 1142.918 241.877, 1143.173 247.083, 1144.406 251.324 C 1146.439 258.316, 1152.337 265.004, 1159.212 268.111 C 1164.295 270.407, 1165.393 270.500, 1187.500 270.500 C 1209.607 270.500, 1210.705 270.407, 1215.788 268.111 C 1222.344 265.148, 1228.302 258.564, 1230.664 251.671 C 1232.101 247.478, 1232.438 243.094, 1232.447 228.500 C 1232.461 205.839, 1231.340 201.355, 1223.701 193.525 C 1215.849 185.477, 1210.005 183.970, 1187.145 184.100 C 1177.440 184.156, 1167.806 184.600, 1165.734 185.088 M 1261.045 185.092 C 1245.928 188.056, 1236.997 203.263, 1241.441 218.475 C 1243.662 226.077, 1249.206 231.852, 1257.092 234.779 C 1261.681 236.482, 1265.687 236.932, 1279.419 237.289 C 1292.773 237.637, 1296.466 238.037, 1297.702 239.273 C 1299.982 241.553, 1299.634 246.068, 1297.014 248.190 C 1294.976 249.840, 1292.315 250, 1266.889 250 C 1239 250, 1239 250, 1239 260.500 C 1239 271, 1239 271, 1270.885 271 C 1306.632 271, 1309.652 270.558, 1317.030 264.242 C 1323.535 258.675, 1325.413 254.053, 1325.460 243.500 C 1325.504 233.579, 1323.865 229.045, 1318.342 223.804 C 1312.239 218.013, 1306.971 216.609, 1290 216.253 C 1271.335 215.862, 1270.658 215.739, 1269.167 212.467 C 1267.702 209.252, 1269.057 206.309, 1272.626 204.952 C 1274.003 204.428, 1285.001 204, 1297.065 204 C 1319 204, 1319 204, 1319 194 C 1319 184, 1319 184, 1292.250 184.110 C 1277.537 184.170, 1263.495 184.612, 1261.045 185.092 M 647.981 206.566 C 641.928 209.084, 641.537 210.472, 641.171 230.750 C 640.841 249, 640.841 249, 653.855 249 C 661.013 249, 668.046 248.553, 669.483 248.006 C 673.757 246.382, 675 241.709, 674.998 227.282 C 674.997 212.143, 673.698 208.249, 668 206.306 C 663.170 204.659, 652.226 204.801, 647.981 206.566 M 931.329 206.458 C 929.585 207.216, 927.672 208.744, 927.079 209.853 C 925.651 212.520, 925.653 239.483, 927.080 242.150 C 929.488 246.648, 942.234 248.600, 949.466 245.579 C 954.887 243.314, 956.001 239.941, 955.996 225.800 C 955.991 208.031, 953.723 204.957, 940.685 205.039 C 937.283 205.061, 933.073 205.699, 931.329 206.458 M 1177.014 206.752 C 1171.804 209.365, 1171.031 211.848, 1171.020 226 C 1171.005 247.163, 1172.254 249, 1186.657 249 C 1196.878 249, 1200.339 248.103, 1201.985 245.028 C 1202.630 243.822, 1203.164 236.606, 1203.264 227.730 C 1203.456 210.679, 1202.916 208.699, 1197.452 206.415 C 1192.632 204.402, 1181.328 204.588, 1177.014 206.752 M 318.500 320.161 C 301.579 321.405, 284.660 326.046, 270.609 333.297 C 262.460 337.503, 251 345.390, 251 346.792 C 251 348.074, 260.260 354.773, 268.610 359.532 C 304.539 380.006, 360.661 379.224, 395 357.769 C 403.868 352.228, 409 348.095, 409 346.493 C 409 344.570, 396.702 336.667, 385.820 331.596 C 377.705 327.815, 363.728 323.466, 353.250 321.463 C 346.868 320.242, 327.347 319.511, 318.500 320.161 M 850.386 333.912 C 847.570 335.191, 845.980 336.683, 845.346 338.640 C 843.206 345.251, 845.796 348.380, 855.676 351.120 C 859.384 352.148, 863.111 353.694, 863.959 354.556 C 865.348 355.968, 865.303 356.271, 863.500 357.639 C 861.476 359.174, 852.312 359.100, 847.346 357.508 C 845.674 356.971, 845.037 357.309, 844.494 359.020 C 843.168 363.198, 846.009 364.500, 856.452 364.500 C 865.004 364.500, 866.062 364.286, 868.417 362.076 C 870.409 360.206, 871 358.679, 871 355.398 C 871 349.969, 868.507 347.873, 859.295 345.559 C 850.466 343.341, 848.734 341.181, 854.027 338.989 C 856.374 338.016, 858.321 337.989, 862.694 338.867 C 870.179 340.371, 870 340.412, 870 337.158 C 870 334.726, 869.443 334.150, 866.134 333.158 C 860.598 331.500, 855.121 331.762, 850.386 333.912 M 927.966 334.250 C 919.413 338.567, 916.489 349.040, 921.466 357.532 C 924.474 362.664, 929.380 365.205, 936.182 365.152 C 943.029 365.099, 947.871 362.371, 950.790 356.923 C 955.450 348.222, 952.197 337.810, 943.599 333.905 C 938.131 331.422, 933.360 331.527, 927.966 334.250 M 966.619 333.034 C 960.191 334.959, 957.614 339.864, 960.130 345.385 C 961.361 348.089, 963.251 349.013, 972.842 351.603 C 979.505 353.402, 981.094 354.977, 978.905 357.614 C 977.855 358.880, 976.259 359.095, 971.044 358.674 C 967.445 358.384, 963.263 357.836, 961.750 357.456 C 959.205 356.818, 959 356.992, 959 359.786 C 959 362.272, 959.555 362.998, 962.149 363.902 C 966.746 365.505, 977.581 365.268, 981.020 363.490 C 984.539 361.670, 986 359.185, 986 355.018 C 986 350.505, 982.162 347.428, 974.292 345.633 C 967.135 344.001, 965.429 342.929, 966.315 340.622 C 967.218 338.269, 973.230 337.624, 978.867 339.276 C 984.245 340.853, 985 340.454, 985 336.037 C 985 332.861, 973.482 330.980, 966.619 333.034 M 879 349 C 879 365, 879 365, 881.966 365 C 884.932 365, 884.932 365, 885.216 354.345 C 885.500 343.690, 885.500 343.690, 889.849 349.895 C 892.241 353.308, 894.716 355.934, 895.349 355.731 C 895.982 355.528, 898.300 352.961, 900.500 350.028 C 904.500 344.696, 904.500 344.696, 904.785 354.848 C 905.070 365, 905.070 365, 908.535 365 C 912 365, 912 365, 912 349 C 912 333, 912 333, 908.588 333 C 905.531 333, 904.693 333.676, 900.537 339.500 C 897.986 343.075, 895.581 346, 895.192 346 C 894.802 346, 892.501 343.075, 890.076 339.500 C 886.130 333.681, 885.319 333, 882.334 333 C 879 333, 879 333, 879 349 M 930.775 339.559 C 927.258 341.468, 926 343.917, 926 348.858 C 926 351.690, 926.751 353.739, 928.589 355.923 C 930.809 358.562, 931.842 358.995, 935.839 358.968 C 942.742 358.921, 946 355.565, 946 348.500 C 946 343.583, 944.484 341.100, 940.452 339.415 C 936.230 337.651, 934.236 337.681, 930.775 339.559 M 513 348.491 C 513 350.982, 513 350.982, 667.750 350.896 C 752.862 350.849, 823.513 350.579, 824.750 350.297 C 826.109 349.986, 827 349.034, 827 347.892 C 827 346.044, 823.334 346, 670 346 C 513 346, 513 346, 513 348.491 M 1006.180 348.250 C 1006.500 350.500, 1006.500 350.500, 1158.500 350.766 C 1242.100 350.912, 1312.862 350.767, 1315.750 350.444 C 1320.065 349.961, 1321 349.513, 1321 347.928 C 1321 346.032, 1318.373 346, 1163.430 346 C 1005.861 346, 1005.861 346, 1006.180 348.250" stroke="none" fill="#2e2e2e" fill-rule="evenodd"/><path d="M 319.500 107.007 C 294.481 108.967, 271.306 117.061, 250.015 131.272 C 240.165 137.848, 222.759 155.429, 216.128 165.500 C 190.411 204.562, 186.772 251.002, 206.142 292.930 C 210.191 301.692, 221.263 319.129, 224.816 322.338 C 226.808 324.136, 227.007 324.082, 234.176 319.769 C 244.008 313.854, 254.865 308.397, 270.500 301.512 C 277.650 298.363, 283.863 295.567, 284.306 295.299 C 284.750 295.031, 282.910 292.483, 280.217 289.636 C 258.011 266.156, 252.184 233.354, 265.449 206.500 C 270.461 196.353, 275.423 189.959, 284.365 182.126 C 291.122 176.206, 303.215 169.912, 312.500 167.481 C 319.604 165.621, 336.340 165.336, 343.500 166.954 C 365.029 171.818, 382.298 185.536, 392.511 205.886 C 406.610 233.980, 400.662 265.819, 376.542 291.364 C 374.536 293.489, 373.041 295.375, 373.222 295.555 C 373.402 295.736, 377.139 297.421, 381.525 299.301 C 393.460 304.416, 411.377 313.287, 421.360 319.022 C 431.645 324.931, 430.709 325.196, 438.958 314.039 C 449.806 299.367, 457.288 282.789, 461.145 264.880 C 462.926 256.609, 463.384 251.249, 463.398 238.500 C 463.419 220.123, 461.913 210.723, 456.389 194.759 C 442.094 153.442, 405.745 120.738, 362.774 110.533 C 354.489 108.565, 331.106 105.534, 329 106.154 C 328.725 106.235, 324.450 106.619, 319.500 107.007" stroke="none" fill="#fbcf54" fill-rule="evenodd"/></svg>