<?xml version="1.0" encoding="UTF-8"?>
<svg version="1.1" xmlns="http://www.w3.org/2000/svg" width="998" height="998">
<path d="M0 0 C1.31592636 -0.00705963 2.63185272 -0.01411926 3.98765564 -0.02139282 C8.21443229 -0.04093212 12.44115117 -0.04608491 16.66796875 -0.046875 C17.74794884 -0.04731686 17.74794884 -0.04731686 18.8497467 -0.04776764 C39.99099425 -0.04916596 60.89566788 0.08500029 81.85546875 3.203125 C83.28351437 3.40927858 84.71157498 3.61532838 86.13964844 3.82128906 C117.07725209 8.34450932 147.17100942 15.29747938 176.85546875 25.203125 C178.02851562 25.59371094 179.2015625 25.98429687 180.41015625 26.38671875 C198.02843984 32.31781864 215.04465713 39.27363718 231.85546875 47.203125 C232.93538086 47.71214355 234.01529297 48.22116211 235.12792969 48.74560547 C258.77284398 59.99984599 281.3944652 73.19182476 302.85546875 88.203125 C303.96559326 88.9775293 303.96559326 88.9775293 305.09814453 89.76757812 C316.0665006 97.45827635 326.59303666 105.5957525 336.85546875 114.203125 C337.46374512 114.71230469 338.07202148 115.22148438 338.69873047 115.74609375 C351.60726277 126.58856406 363.7957909 138.05468486 375.73046875 149.953125 C376.22892303 150.44890045 376.72737732 150.9446759 377.24093628 151.45547485 C382.99975272 157.19080287 388.59349309 163.00535098 393.85546875 169.203125 C394.8400026 170.33302842 395.82564736 171.46196498 396.8125 172.58984375 C425.3451181 205.47689658 448.43330793 242.31484762 467.85546875 281.203125 C468.28553223 282.05535645 468.7155957 282.90758789 469.15869141 283.78564453 C499.20175358 343.58705919 516.81947279 414.4465919 517.05859375 481.34765625 C517.06565338 482.66358261 517.07271301 483.97950897 517.07998657 485.33531189 C517.09952587 489.56208854 517.10467866 493.78880742 517.10546875 498.015625 C517.10591061 499.09560509 517.10591061 499.09560509 517.10636139 500.19740295 C517.10775971 521.3386505 516.97359346 542.24332413 513.85546875 563.203125 C513.64931517 564.63117062 513.44326537 566.05923123 513.23730469 567.48730469 C508.71408443 598.42490834 501.76111437 628.51866567 491.85546875 658.203125 C491.46488281 659.37617187 491.07429687 660.54921875 490.671875 661.7578125 C484.74077511 679.37609609 477.78495657 696.39231338 469.85546875 713.203125 C469.3464502 714.28303711 468.83743164 715.36294922 468.31298828 716.47558594 C457.05874776 740.12050023 443.86676899 762.74212145 428.85546875 784.203125 C428.33919922 784.94320801 427.82292969 785.68329102 427.29101562 786.44580078 C419.6003174 797.41415685 411.46284125 807.94069291 402.85546875 818.203125 C402.09169922 819.11553955 402.09169922 819.11553955 401.3125 820.04638672 C390.47002969 832.95491902 379.00390889 845.14344715 367.10546875 857.078125 C366.6096933 857.57657928 366.11391785 858.07503357 365.6031189 858.58859253 C359.86779088 864.34740897 354.05324277 869.94114934 347.85546875 875.203125 C346.72556533 876.18765885 345.59662877 877.17330361 344.46875 878.16015625 C311.58169717 906.69277435 274.74374613 929.78096418 235.85546875 949.203125 C235.0032373 949.63318848 234.15100586 950.06325195 233.27294922 950.50634766 C173.47153456 980.54940983 102.61200185 998.16712904 35.7109375 998.40625 C34.39501114 998.41330963 33.07908478 998.42036926 31.72328186 998.42764282 C27.49650521 998.44718212 23.26978633 998.45233491 19.04296875 998.453125 C17.96298866 998.45356686 17.96298866 998.45356686 16.8611908 998.45401764 C-4.28005675 998.45541596 -25.18473038 998.32124971 -46.14453125 995.203125 C-47.57257687 994.99697142 -49.00063748 994.79092162 -50.42871094 994.58496094 C-81.36631459 990.06174068 -111.46007192 983.10877062 -141.14453125 973.203125 C-142.31757813 972.81253906 -143.490625 972.42195312 -144.69921875 972.01953125 C-162.31750234 966.08843136 -179.33371963 959.13261282 -196.14453125 951.203125 C-197.22444336 950.69410645 -198.30435547 950.18508789 -199.41699219 949.66064453 C-223.06190648 938.40640401 -245.6835277 925.21442524 -267.14453125 910.203125 C-267.88461426 909.68685547 -268.62469727 909.17058594 -269.38720703 908.63867188 C-280.3555631 900.94797365 -290.88209916 892.8104975 -301.14453125 884.203125 C-302.0569458 883.43935547 -302.0569458 883.43935547 -302.98779297 882.66015625 C-315.89632527 871.81768594 -328.0848534 860.35156514 -340.01953125 848.453125 C-340.51798553 847.95734955 -341.01643982 847.4615741 -341.52999878 846.95077515 C-347.28881522 841.21544713 -352.88255559 835.40089902 -358.14453125 829.203125 C-359.1290651 828.07322158 -360.11470986 826.94428502 -361.1015625 825.81640625 C-389.6341806 792.92935342 -412.72237043 756.09140238 -432.14453125 717.203125 C-432.57459473 716.35089355 -433.0046582 715.49866211 -433.44775391 714.62060547 C-463.49081608 654.81919081 -481.10853529 583.9596581 -481.34765625 517.05859375 C-481.35471588 515.74266739 -481.36177551 514.42674103 -481.36904907 513.07093811 C-481.38858837 508.84416146 -481.39374116 504.61744258 -481.39453125 500.390625 C-481.39482582 499.67063828 -481.39512039 498.95065155 -481.39542389 498.20884705 C-481.39682221 477.0675995 -481.26265596 456.16292587 -478.14453125 435.203125 C-477.93837767 433.77507938 -477.73232787 432.34701877 -477.52636719 430.91894531 C-473.00314693 399.98134166 -466.05017687 369.88758433 -456.14453125 340.203125 C-455.75394531 339.03007812 -455.36335938 337.85703125 -454.9609375 336.6484375 C-449.02983761 319.03015391 -442.07401907 302.01393662 -434.14453125 285.203125 C-433.6355127 284.12321289 -433.12649414 283.04330078 -432.60205078 281.93066406 C-421.34781026 258.28574977 -408.15583149 235.66412855 -393.14453125 214.203125 C-392.37012695 213.09300049 -392.37012695 213.09300049 -391.58007812 211.96044922 C-383.8893799 200.99209315 -375.75190375 190.46555709 -367.14453125 180.203125 C-366.63535156 179.59484863 -366.12617188 178.98657227 -365.6015625 178.35986328 C-354.75909219 165.45133098 -343.29297139 153.26280285 -331.39453125 141.328125 C-330.8987558 140.82967072 -330.40298035 140.33121643 -329.8921814 139.81765747 C-324.15685338 134.05884103 -318.34230527 128.46510066 -312.14453125 123.203125 C-311.01462783 122.21859115 -309.88569127 121.23294639 -308.7578125 120.24609375 C-275.87075967 91.71347565 -239.03280863 68.62528582 -200.14453125 49.203125 C-199.2922998 48.77306152 -198.44006836 48.34299805 -197.56201172 47.89990234 C-137.76059706 17.85684017 -66.90106435 0.23912096 0 0 Z " fill="#0F3758" transform="translate(481.14453125,-0.203125)"/>
<path d="M0 0 C0.66 0 1.32 0 2 0 C6.3157817 21.04760962 10.36295869 42.13244594 14.15820312 63.28027344 C17.20988493 80.27980022 20.44605782 97.23978868 23.78881836 114.18432617 C26.79372081 129.42415202 29.69908896 144.67712323 32.44799805 159.965271 C35.26483357 175.63031852 38.14419399 191.28205234 41.16555786 206.90908813 C41.54945538 208.89833519 41.93094012 210.88804969 42.30978394 212.87826538 C47.47721362 241.49415099 47.47721362 241.49415099 66 263 C75.28114788 268.13700743 82.84719104 270.15396326 93.30078125 270.16796875 C94.27615341 270.17202225 95.25152557 270.17607574 96.25645447 270.18025208 C99.60850032 270.1899746 102.96044148 270.18959613 106.3125 270.1875 C108.07720642 270.18858765 108.07720642 270.18858765 109.87756348 270.18969727 C142.94205216 270.18752333 176.00031343 269.40541578 209.0559082 268.71166992 C211.2895148 268.66523962 213.52312177 268.6188272 215.75672913 268.57243347 C219.91153035 268.48607697 224.06624566 268.39658658 228.22093201 268.30488586 C240.8159422 268.0350478 253.4022269 267.94890575 266 268 C265.84505837 269.60141373 265.68864139 271.20268477 265.53160095 272.80389404 C265.44465438 273.69561687 265.35770781 274.58733971 265.26812649 275.50608444 C262.34449267 302.69957781 251.92831 330.59088109 240 355 C239.55430664 355.93473145 239.10861328 356.86946289 238.64941406 357.83251953 C222.28313203 392.15453378 200.41469292 425.37116745 173.0078125 451.9921875 C171.07981582 453.92018418 169.31932966 455.91631831 167.5625 458 C164.21227003 461.89704912 160.5117888 465.26523394 156.65625 468.65625 C153.97810097 471.01932267 151.36608535 473.4435795 148.75 475.875 C131.79090908 491.26863638 112.77146655 504.50455824 93 516 C92.28408691 516.41846191 91.56817383 516.83692383 90.83056641 517.26806641 C70.10885898 529.30290351 48.4950349 538.80140576 26 547 C25.20352051 547.29745117 24.40704102 547.59490234 23.58642578 547.90136719 C-3.05680848 557.81262642 -32.70170412 563.57815198 -61 566 C-62.00192383 566.08612549 -63.00384766 566.17225098 -64.03613281 566.26098633 C-94.99237199 568.62563971 -126.36355966 568.11302421 -157 563 C-158.15532227 562.81276367 -159.31064453 562.62552734 -160.50097656 562.43261719 C-218.36097104 552.84722754 -273.10529521 527.98217135 -320 493 C-320.80026611 492.40590332 -320.80026611 492.40590332 -321.61669922 491.79980469 C-341.33039801 477.11348309 -359.76307048 460.46427336 -376 442 C-376.44472656 441.50000488 -376.88945312 441.00000977 -377.34765625 440.48486328 C-414.92083529 398.07810837 -440.15039343 346.35156061 -455 292 C-455.35795654 290.69264893 -455.35795654 290.69264893 -455.72314453 289.35888672 C-459.094614 276.88972153 -459.094614 276.88972153 -459 271 C-440.72754679 270.89282777 -422.46960826 270.91951221 -404.203125 271.4375 C-403.42595627 271.45947449 -402.64878754 271.48144897 -401.84806824 271.50408936 C-396.315162 271.66236098 -390.78256622 271.83031815 -385.25 272 C-358.8060288 272.81336866 -358.8060288 272.81336866 -332.35262299 273.15220642 C-330.34437449 273.15988502 -328.33615378 273.17400191 -326.32794189 273.18835449 C-307.67348702 273.18527523 -290.21335521 268.39734665 -276.62329102 254.88818359 C-267.44182069 244.77959412 -262.83923993 232.0202028 -257.9375 219.5 C-257.19893811 217.64044737 -256.459088 215.78140592 -255.71801758 213.92285156 C-254.20609802 210.12826355 -252.69969477 206.33155815 -251.19726562 202.53320312 C-248.22058375 195.0205628 -245.17298201 187.53701963 -242.12484741 180.05316162 C-229.53581804 149.12058645 -217.26114257 118.06360033 -205 87 C-204.34 87 -203.68 87 -203 87 C-202.78384033 88.17167725 -202.56768066 89.34335449 -202.3449707 90.55053711 C-197.26941511 118.18555583 -197.26941511 118.18555583 -191.86450195 145.75732422 C-190.65334635 151.7209436 -189.47188294 157.68944803 -188.31640625 163.6640625 C-188.16691025 164.43655838 -188.01741425 165.20905426 -187.86338806 166.00495911 C-187.26818011 169.08261536 -186.67328429 172.16032609 -186.08200073 175.23873901 C-184.37642714 184.11809556 -182.59899501 192.9791029 -180.7421875 201.828125 C-177.60145761 216.80723662 -174.59972856 231.81395499 -171.59863281 246.8215332 C-170.95445469 250.04250449 -170.30894134 253.26320319 -169.66210938 256.48364258 C-165.77890674 275.81845901 -161.97738921 295.16533296 -158.35916138 314.55168152 C-156.6983921 323.43351305 -154.93691216 332.2852879 -153.0625 341.125 C-150.09064317 355.23963157 -147.46781967 369.4125852 -144.89086914 383.60400391 C-143.95449827 388.74134116 -142.99162353 393.87303967 -142 399 C-141.75570251 400.26629242 -141.75570251 400.26629242 -141.50646973 401.5581665 C-141.02342884 404.0177415 -140.5195234 406.47202797 -140.0078125 408.92578125 C-139.79437698 410.01792183 -139.79437698 410.01792183 -139.57662964 411.13212585 C-138.35665206 416.79542744 -136.23896538 421.08088682 -131.8125 424.875 C-126.59842301 426.9606308 -121.84816013 426.68450375 -116.625 424.75 C-110.99070031 420.99380021 -109.93442397 416.12198559 -108.25 409.875 C-107.86811523 408.49803955 -107.86811523 408.49803955 -107.47851562 407.09326172 C-106.64231707 404.06482589 -105.8202375 401.03279502 -105 398 C-104.421875 395.88020833 -103.84375 393.76041667 -103.265625 391.640625 C-100.19492276 380.33423801 -97.20632891 369.00719379 -94.26513672 357.66650391 C-92.72264055 351.73109239 -91.14554575 345.80604331 -89.542099 339.8868103 C-86.777544 329.67741812 -84.0708474 319.45599147 -81.44140625 309.2109375 C-76.91025002 291.59947912 -72.31128393 274.00588283 -67.69897461 256.41552734 C-66.76782758 252.86382427 -65.83822335 249.31172265 -64.90991211 245.75927734 C-63.76179958 241.36570891 -62.61113039 236.9728173 -61.45870018 232.58037949 C-61.02934852 230.94233357 -60.60082435 229.30407047 -60.17324257 227.66556168 C-57.80235601 218.58341695 -55.33263985 209.54365203 -52.64088917 200.55075264 C-51.23427796 195.84999201 -50.00325784 191.16347476 -48.9375 186.375 C-47.33659464 179.21887926 -45.46002199 172.14773868 -43.55471802 165.06768799 C-42.62148639 161.5891065 -41.7015857 158.10701145 -40.78125 154.625 C-40.40234665 153.19270757 -40.02344038 151.76041591 -39.64453125 150.328125 C-39.26300324 148.88542132 -38.88149286 147.44271298 -38.5 146 C-36.35101105 137.87304776 -34.20103171 129.74643194 -32.03125 121.625 C-29.66404097 112.75616932 -27.33242383 103.87803079 -25 95 C-24.14614313 91.74991848 -23.29192215 88.49993295 -22.4375 85.25 C-22.25195557 84.54327148 -22.06641113 83.83654297 -21.87524414 83.10839844 C-20.62467071 78.35180118 -19.35991395 73.59910293 -18.09082031 68.84741211 C-16.07599963 61.300902 -14.08918252 53.74717923 -12.109375 46.19140625 C-11.75639521 44.84520262 -11.40338764 43.49900628 -11.050354 42.15281677 C-10.13607786 38.66619949 -9.22217061 35.17948562 -8.30834961 31.69274902 C-7.36985895 28.11216299 -6.4310064 24.53167185 -5.4921875 20.95117188 C-3.66111119 13.96753889 -1.83042596 6.98380347 0 0 Z " fill="#0F3758" transform="translate(598,297)"/>
<path d="M0 0 C1.31592636 -0.00705963 2.63185272 -0.01411926 3.98765564 -0.02139282 C8.21443229 -0.04093212 12.44115117 -0.04608491 16.66796875 -0.046875 C17.74794884 -0.04731686 17.74794884 -0.04731686 18.8497467 -0.04776764 C39.99099425 -0.04916596 60.89566788 0.08500029 81.85546875 3.203125 C83.28351437 3.40927858 84.71157498 3.61532838 86.13964844 3.82128906 C117.07725209 8.34450932 147.17100942 15.29747938 176.85546875 25.203125 C178.02851562 25.59371094 179.2015625 25.98429687 180.41015625 26.38671875 C198.02843984 32.31781864 215.04465713 39.27363718 231.85546875 47.203125 C232.93538086 47.71214355 234.01529297 48.22116211 235.12792969 48.74560547 C258.77284398 59.99984599 281.3944652 73.19182476 302.85546875 88.203125 C303.96559326 88.9775293 303.96559326 88.9775293 305.09814453 89.76757812 C316.0665006 97.45827635 326.59303666 105.5957525 336.85546875 114.203125 C337.46374512 114.71230469 338.07202148 115.22148438 338.69873047 115.74609375 C351.60726277 126.58856406 363.7957909 138.05468486 375.73046875 149.953125 C376.22892303 150.44890045 376.72737732 150.9446759 377.24093628 151.45547485 C382.99975272 157.19080287 388.59349309 163.00535098 393.85546875 169.203125 C394.8400026 170.33302842 395.82564736 171.46196498 396.8125 172.58984375 C425.3451181 205.47689658 448.43330793 242.31484762 467.85546875 281.203125 C468.28553223 282.05535645 468.7155957 282.90758789 469.15869141 283.78564453 C499.20175358 343.58705919 516.81947279 414.4465919 517.05859375 481.34765625 C517.06565338 482.66358261 517.07271301 483.97950897 517.07998657 485.33531189 C517.09952587 489.56208854 517.10467866 493.78880742 517.10546875 498.015625 C517.10591061 499.09560509 517.10591061 499.09560509 517.10636139 500.19740295 C517.10775971 521.3386505 516.97359346 542.24332413 513.85546875 563.203125 C513.64931517 564.63117062 513.44326537 566.05923123 513.23730469 567.48730469 C508.71408443 598.42490834 501.76111437 628.51866567 491.85546875 658.203125 C491.46488281 659.37617187 491.07429687 660.54921875 490.671875 661.7578125 C484.74077511 679.37609609 477.78495657 696.39231338 469.85546875 713.203125 C469.3464502 714.28303711 468.83743164 715.36294922 468.31298828 716.47558594 C457.05874776 740.12050023 443.86676899 762.74212145 428.85546875 784.203125 C428.33919922 784.94320801 427.82292969 785.68329102 427.29101562 786.44580078 C419.6003174 797.41415685 411.46284125 807.94069291 402.85546875 818.203125 C402.09169922 819.11553955 402.09169922 819.11553955 401.3125 820.04638672 C390.47002969 832.95491902 379.00390889 845.14344715 367.10546875 857.078125 C366.6096933 857.57657928 366.11391785 858.07503357 365.6031189 858.58859253 C359.86779088 864.34740897 354.05324277 869.94114934 347.85546875 875.203125 C346.72556533 876.18765885 345.59662877 877.17330361 344.46875 878.16015625 C311.58169717 906.69277435 274.74374613 929.78096418 235.85546875 949.203125 C235.0032373 949.63318848 234.15100586 950.06325195 233.27294922 950.50634766 C173.47153456 980.54940983 102.61200185 998.16712904 35.7109375 998.40625 C34.39501114 998.41330963 33.07908478 998.42036926 31.72328186 998.42764282 C27.49650521 998.44718212 23.26978633 998.45233491 19.04296875 998.453125 C17.96298866 998.45356686 17.96298866 998.45356686 16.8611908 998.45401764 C-4.28005675 998.45541596 -25.18473038 998.32124971 -46.14453125 995.203125 C-47.57257687 994.99697142 -49.00063748 994.79092162 -50.42871094 994.58496094 C-81.36631459 990.06174068 -111.46007192 983.10877062 -141.14453125 973.203125 C-142.31757813 972.81253906 -143.490625 972.42195312 -144.69921875 972.01953125 C-162.31750234 966.08843136 -179.33371963 959.13261282 -196.14453125 951.203125 C-197.22444336 950.69410645 -198.30435547 950.18508789 -199.41699219 949.66064453 C-223.06190648 938.40640401 -245.6835277 925.21442524 -267.14453125 910.203125 C-267.88461426 909.68685547 -268.62469727 909.17058594 -269.38720703 908.63867188 C-280.3555631 900.94797365 -290.88209916 892.8104975 -301.14453125 884.203125 C-302.0569458 883.43935547 -302.0569458 883.43935547 -302.98779297 882.66015625 C-315.89632527 871.81768594 -328.0848534 860.35156514 -340.01953125 848.453125 C-340.51798553 847.95734955 -341.01643982 847.4615741 -341.52999878 846.95077515 C-347.28881522 841.21544713 -352.88255559 835.40089902 -358.14453125 829.203125 C-359.1290651 828.07322158 -360.11470986 826.94428502 -361.1015625 825.81640625 C-389.6341806 792.92935342 -412.72237043 756.09140238 -432.14453125 717.203125 C-432.57459473 716.35089355 -433.0046582 715.49866211 -433.44775391 714.62060547 C-463.49081608 654.81919081 -481.10853529 583.9596581 -481.34765625 517.05859375 C-481.35471588 515.74266739 -481.36177551 514.42674103 -481.36904907 513.07093811 C-481.38858837 508.84416146 -481.39374116 504.61744258 -481.39453125 500.390625 C-481.39482582 499.67063828 -481.39512039 498.95065155 -481.39542389 498.20884705 C-481.39682221 477.0675995 -481.26265596 456.16292587 -478.14453125 435.203125 C-477.93837767 433.77507938 -477.73232787 432.34701877 -477.52636719 430.91894531 C-473.00314693 399.98134166 -466.05017687 369.88758433 -456.14453125 340.203125 C-455.75394531 339.03007812 -455.36335938 337.85703125 -454.9609375 336.6484375 C-449.02983761 319.03015391 -442.07401907 302.01393662 -434.14453125 285.203125 C-433.6355127 284.12321289 -433.12649414 283.04330078 -432.60205078 281.93066406 C-421.34781026 258.28574977 -408.15583149 235.66412855 -393.14453125 214.203125 C-392.37012695 213.09300049 -392.37012695 213.09300049 -391.58007812 211.96044922 C-383.8893799 200.99209315 -375.75190375 190.46555709 -367.14453125 180.203125 C-366.63535156 179.59484863 -366.12617188 178.98657227 -365.6015625 178.35986328 C-354.75909219 165.45133098 -343.29297139 153.26280285 -331.39453125 141.328125 C-330.8987558 140.82967072 -330.40298035 140.33121643 -329.8921814 139.81765747 C-324.15685338 134.05884103 -318.34230527 128.46510066 -312.14453125 123.203125 C-311.01462783 122.21859115 -309.88569127 121.23294639 -308.7578125 120.24609375 C-275.87075967 91.71347565 -239.03280863 68.62528582 -200.14453125 49.203125 C-199.2922998 48.77306152 -198.44006836 48.34299805 -197.56201172 47.89990234 C-137.76059706 17.85684017 -66.90106435 0.23912096 0 0 Z M-169.85449219 97.13232422 C-172.14165134 98.20177838 -174.44145719 99.23835537 -176.74609375 100.26953125 C-212.30392171 116.37570801 -244.95284323 139.43066838 -274.14453125 165.203125 C-274.64710449 165.64640137 -275.14967773 166.08967773 -275.66748047 166.54638672 C-282.99191744 173.05510913 -289.97903408 179.91730334 -296.93359375 186.81695557 C-298.35018986 188.22165597 -299.77073633 189.62236908 -301.19140625 191.02294922 C-306.52623712 196.35107323 -311.45117959 201.84424793 -316.16113281 207.73168945 C-318.22067448 210.29800412 -320.36118224 212.76916337 -322.54150391 215.23217773 C-330.06191403 223.75539967 -336.65737299 232.88049193 -343.14453125 242.203125 C-343.78938477 243.12399902 -343.78938477 243.12399902 -344.44726562 244.06347656 C-372.90797525 284.92132298 -394.1101297 330.48998904 -408.14453125 378.203125 C-408.36270508 378.92886719 -408.58087891 379.65460938 -408.80566406 380.40234375 C-416.37084177 405.86275519 -420.71760119 432.54451392 -422.86669922 458.97705078 C-423.02395236 460.80301127 -423.19124191 462.62835778 -423.39135742 464.45011902 C-424.04088321 470.4160352 -424.31740155 476.30140934 -424.34765625 482.30078125 C-424.35467056 483.24038696 -424.36168488 484.17999268 -424.36891174 485.14807129 C-424.38638812 488.18730494 -424.39277059 491.22634284 -424.39453125 494.265625 C-424.39520599 495.31023895 -424.39588074 496.35485291 -424.39657593 497.43112183 C-424.3672268 526.15294263 -421.44936654 553.97674716 -416.14453125 582.203125 C-415.97840332 583.1012793 -415.81227539 583.99943359 -415.64111328 584.92480469 C-401.85674575 658.35391175 -368.03953134 726.895012 -319.14453125 783.203125 C-318.19320312 784.30527344 -318.19320312 784.30527344 -317.22265625 785.4296875 C-315.54182048 787.36496172 -313.84432873 789.28450302 -312.14453125 791.203125 C-311.55285156 791.88761719 -310.96117187 792.57210937 -310.3515625 793.27734375 C-305.14925965 799.20414525 -299.64778603 804.80616847 -294.08203125 810.390625 C-292.94834106 811.53120361 -292.94834106 811.53120361 -291.79174805 812.69482422 C-287.62058689 816.85464454 -283.36196453 820.84707818 -278.89770508 824.69067383 C-276.72662848 826.56364689 -274.6257421 828.50775207 -272.51953125 830.453125 C-266.31857611 836.03965623 -259.764286 841.12809361 -253.14453125 846.203125 C-252.51772461 846.6868457 -251.89091797 847.17056641 -251.24511719 847.66894531 C-205.13119415 883.18627801 -152.93477104 909.26102498 -96.7800293 924.46948242 C-94.86393021 925.00286619 -92.95468546 925.56106441 -91.05004883 926.1340332 C-81.57014621 928.96106223 -72.05095296 930.96237177 -62.33203125 932.765625 C-61.52659882 932.91686829 -60.72116638 933.06811157 -59.8913269 933.22393799 C-46.04392254 935.81488288 -32.18505778 937.96133029 -18.14453125 939.203125 C-17.11763184 939.2959375 -16.09073242 939.38875 -15.03271484 939.484375 C-4.90484922 940.30837685 5.20014044 940.44626855 15.35546875 940.453125 C16.71724747 940.45413712 16.71724747 940.45413712 18.10653687 940.45516968 C47.42246066 940.42101049 76.09396856 937.9284495 104.85546875 932.203125 C106.55326609 931.88088107 108.25117269 931.55921196 109.94921875 931.23828125 C143.02342023 924.80814733 175.15659587 913.96784311 205.85546875 900.203125 C206.66258301 899.84508789 207.46969727 899.48705078 208.30126953 899.11816406 C240.02824053 884.97589606 269.72783317 865.81701351 296.85546875 844.203125 C297.80679688 843.44515625 298.758125 842.6871875 299.73828125 841.90625 C305.06308006 837.60488049 310.22142974 833.15753544 315.2734375 828.5390625 C316.66153044 827.28326888 318.05537251 826.03309123 319.48120117 824.8203125 C325.63690716 819.5640079 331.35325816 813.89145415 337.07299805 808.17089844 C338.78089931 806.46517902 340.4966492 804.76763473 342.21289062 803.0703125 C348.14954668 797.16325688 353.73628706 791.18592553 358.92480469 784.60131836 C360.90934393 782.13620341 363.00495589 779.82471078 365.16796875 777.515625 C371.25668194 770.81381222 376.53433985 763.51673228 381.85546875 756.203125 C382.34950195 755.52862305 382.84353516 754.85412109 383.35253906 754.15917969 C428.11472649 692.85123321 453.95231647 621.26237131 462.85546875 546.203125 C462.99740662 545.0197052 462.99740662 545.0197052 463.14221191 543.81237793 C464.83902094 529.2620431 465.17800913 514.84210162 465.10546875 500.203125 C465.10236694 499.08583008 465.09926514 497.96853516 465.09606934 496.81738281 C465.03995779 479.54735867 464.77061872 462.38346062 462.85546875 445.203125 C462.67806152 443.60960205 462.67806152 443.60960205 462.49707031 441.98388672 C452.85801539 360.27266156 418.22086568 283.08833503 366.85546875 219.203125 C366.0975 218.25050781 365.33953125 217.29789063 364.55859375 216.31640625 C359.79934939 210.4011043 354.80078045 204.77504371 349.62890625 199.22265625 C347.53871288 196.9725865 345.52177411 194.66897532 343.515625 192.34375 C339.81789612 188.10132031 335.90772985 184.10730166 331.91796875 180.140625 C331.25345703 179.47224609 330.58894531 178.80386719 329.90429688 178.11523438 C325.38609187 173.60579408 320.69690398 169.36121019 315.85546875 165.203125 C314.77265158 164.25349957 313.69057677 163.30302675 312.609375 162.3515625 C284.02203568 137.41433291 251.91506341 116.68721593 217.80029297 100.15332031 C215.92507042 99.23713074 214.063901 98.29667104 212.203125 97.3515625 C177.70450394 80.12685231 138.74064337 69.13799739 100.87438965 62.56182861 C98.75032638 62.18444425 96.6316973 61.78321381 94.51269531 61.37841797 C70.98157498 56.9393718 47.6795591 55.63715561 23.78775787 55.64037323 C21.64964958 55.6406199 19.51157766 55.63655464 17.37347412 55.63238525 C-47.38981733 55.5876683 -111.18554235 69.48331132 -169.85449219 97.13232422 Z " fill="#FDD154" transform="translate(481.14453125,-0.203125)"/>
<path d="M0 0 C1.23814453 0.22671387 2.47628906 0.45342773 3.75195312 0.68701172 C26.01611573 4.89855465 47.32211181 12.23396576 68.5078125 20.140625 C69.14547043 20.37825562 69.78312836 20.61588623 70.44010925 20.86071777 C77.75585441 23.6172973 84.88767678 26.76167674 92 30 C93.16909912 30.5252124 93.16909912 30.5252124 94.36181641 31.06103516 C128.28984604 46.37190522 160.23943964 67.18855769 188 92 C189.34578125 93.17949219 189.34578125 93.17949219 190.71875 94.3828125 C197.40690699 100.35987234 203.78502405 106.65766082 210.14993286 112.97470093 C211.15758155 113.97430971 212.16670601 114.97243355 213.17745972 115.96890259 C219.92403108 122.63018655 226.09575682 129.58007914 232 137 C232.86338597 138.02755195 233.73177736 139.0509651 234.609375 140.06640625 C264.093298 174.44638215 286.55043751 215.57478283 302 258 C302.51191895 259.39992188 302.51191895 259.39992188 303.03417969 260.828125 C314.73243417 293.24740248 321.22993528 326.81068759 325 361 C325.14791992 362.21381348 325.14791992 362.21381348 325.29882812 363.45214844 C326.23228532 371.98235837 326.15095653 380.52582776 326.13037109 389.09570312 C326.1250394 391.73052806 326.13032833 394.36518043 326.13671875 397 C326.14754351 421.26228243 326.14754351 421.26228243 324 432 C311.13 432 298.26 432 285 432 C285.165 428.65875 285.33 425.3175 285.5 421.875 C286.47054708 399.50553074 286.60281271 377.26047533 284 355 C283.89816406 354.10442383 283.79632812 353.20884766 283.69140625 352.28613281 C276.82144644 293.31897782 255.12967419 237.58578197 221 189 C220.2080634 187.85044633 219.4164004 186.70070413 218.625 185.55078125 C209.65668442 172.64392257 199.65140748 160.54836811 189 149 C187.74316406 147.58847656 187.74316406 147.58847656 186.4609375 146.1484375 C179.72730483 138.60794788 172.55429806 131.71248946 165 125 C164.46036621 124.51563477 163.92073242 124.03126953 163.36474609 123.53222656 C153.4325416 114.64754767 142.86220575 106.70942453 132 99 C131.04770508 98.32372559 131.04770508 98.32372559 130.07617188 97.63378906 C86.05886106 66.68638228 34.68695092 46.51313255 -18.26611328 37.63330078 C-20.64050059 37.23058333 -23.01184706 36.80915444 -25.37841797 36.36279297 C-63.04113744 29.26838362 -104.29498554 30.57830405 -142 37 C-143.33463401 37.2218509 -144.66926945 37.44369321 -146.00390625 37.66552734 C-203.77607753 47.40368977 -259.36683056 70.29224217 -306 106 C-306.58056152 106.44166504 -307.16112305 106.88333008 -307.75927734 107.33837891 C-326.74577477 121.82821353 -344.44616212 137.83624829 -360 156 C-360.8891891 157.0209499 -361.77850192 158.04179206 -362.66796875 159.0625 C-407.10621072 210.87266738 -436.06330371 273.33196078 -447.1875 340.625 C-447.34250977 341.55256104 -447.49751953 342.48012207 -447.65722656 343.43579102 C-450.39236594 360.8462343 -451.31720327 378.1481854 -451.1875 395.75 C-451.18063012 397.67675656 -451.17412324 399.60351446 -451.16796875 401.53027344 C-451.1043909 415.3691979 -450.77079505 429.18074582 -450 443 C-449.02619385 442.9498877 -448.0523877 442.89977539 -447.04907227 442.84814453 C-424.58084585 441.70081697 -402.10854251 440.73136988 -379.625 439.9375 C-378.42262695 439.89481995 -377.22025391 439.85213989 -375.98144531 439.8081665 C-363.30022967 439.36246207 -350.62042802 438.96620516 -337.93359375 438.72265625 C-336.91458984 438.70259018 -335.89558594 438.68252411 -334.84570312 438.66184998 C-330.10571224 438.57038026 -325.36597446 438.49003001 -320.62548828 438.42944336 C-305.80717872 438.27462642 -305.80717872 438.27462642 -291.75 433.9375 C-290.59757812 433.42509766 -290.59757812 433.42509766 -289.421875 432.90234375 C-282.16682427 427.20361842 -279.18141608 418.11570769 -276.0625 409.75 C-275.09585959 407.2257249 -274.12711966 404.7023315 -273.15625 402.1796875 C-272.90263199 401.51756256 -272.64901398 400.85543762 -272.38771057 400.17324829 C-269.68152976 393.12445626 -266.83856167 386.13286219 -263.98690796 379.14193726 C-257.85165132 364.09637029 -251.78428512 349.02381398 -245.75 333.9375 C-245.34372375 332.92184967 -244.93744751 331.90619934 -244.51885986 330.85977173 C-239.02712672 317.12561521 -233.56014455 303.38171727 -228.10546875 289.6328125 C-227.66106508 288.5128057 -227.66106508 288.5128057 -227.20768356 287.3701725 C-223.2146566 277.30682583 -223.2146566 277.30682583 -219.22619629 267.2416687 C-218.94864565 266.54080674 -218.67109501 265.83994478 -218.38513374 265.11784458 C-217.83130227 263.71932534 -217.27750339 262.32079319 -216.72373772 260.92224789 C-215.37792642 257.52510319 -214.02916126 254.12918256 -212.67398071 250.73576355 C-212.41217451 250.08018935 -212.15036831 249.42461515 -211.88062859 248.74917507 C-211.35815827 247.44105778 -210.83556246 246.13299061 -210.3128376 244.82497501 C-208.75491382 240.91874817 -207.22223947 237.00366054 -205.70830822 233.08018208 C-204.97147986 231.17621036 -204.22717345 229.27535655 -203.47987366 227.37547302 C-202.56614353 225.04947732 -201.66519083 222.71840359 -200.7797699 220.38148499 C-198.06591675 213.54074057 -195.75084828 209.37542414 -189 206 C-183.39272183 205.62618146 -179.83227462 205.81509173 -175 209 C-171.4807387 212.74948943 -170.1904985 215.90635324 -169.03125 220.88671875 C-168.86830444 221.5809343 -168.70535889 222.27514984 -168.53747559 222.99040222 C-166.51959916 231.77428634 -164.83905678 240.63251345 -163.14001465 249.48226929 C-161.97483176 255.5451428 -160.79330407 261.6048258 -159.609375 267.6640625 C-159.47695656 268.34221449 -159.34453812 269.02036648 -159.20810699 269.71906853 C-156.55541913 283.29044202 -153.82255406 296.84535735 -151.078125 310.3984375 C-150.75223892 312.00823644 -150.75223892 312.00823644 -150.41976929 313.65055656 C-148.43288541 323.46365714 -146.44385741 333.27632121 -144.44897461 343.08779907 C-140.18526029 364.05905549 -135.94680636 385.02987072 -132.01688957 406.06653595 C-129.697284 418.47142699 -127.25054062 430.84756347 -124.73828125 443.21484375 C-124.55696781 444.1075038 -124.37565437 445.00016384 -124.18884659 445.91987419 C-122.90014658 452.25978036 -121.6067168 458.59871812 -120.3125 464.9375 C-118.8265614 472.21686647 -117.34299765 479.4967098 -115.86328125 486.77734375 C-115.60051077 488.06877855 -115.60051077 488.06877855 -115.33243179 489.38630295 C-113.12108078 500.2664206 -110.96942642 511.15135784 -109.08650208 522.09422302 C-108.43883824 526.1670391 -108.43883824 526.1670391 -107 530 C-106.78085937 529.11183594 -106.56171875 528.22367188 -106.3359375 527.30859375 C-98.57090581 496.0275108 -98.57090581 496.0275108 -94.375 482.125 C-92.77119123 476.80443799 -91.35605939 471.48136541 -90.125 466.0625 C-88.59509846 459.34925816 -86.87470778 452.70493232 -85.0625 446.0625 C-80.77689359 430.33761169 -76.70798454 414.55656683 -72.61938477 398.77954102 C-70.06821486 388.93807175 -67.50618813 379.10073844 -64.87426758 369.28051758 C-63.44684463 363.92439298 -62.06943842 358.55550144 -60.6875 353.1875 C-58.04090451 342.93992822 -55.3214852 332.71405405 -52.55761719 322.49755859 C-49.88939673 312.62274719 -47.30225692 302.72783879 -44.73388672 292.82666016 C-43.49370693 288.04994639 -42.24648054 283.27507268 -41 278.5 C-39.4875228 272.70332252 -37.97551681 266.90652294 -36.46484375 261.109375 C-33.12721349 248.30359946 -29.76899726 235.50340157 -26.39550781 222.70703125 C-25.98954605 221.1668607 -25.58370392 219.62665861 -25.17797852 218.08642578 C-24.7672965 216.5274306 -24.35632593 214.96851141 -23.94506836 213.40966797 C-22.79365344 209.03920996 -21.6542253 204.66591449 -20.52734375 200.2890625 C-20.27331787 199.30583008 -20.01929199 198.32259766 -19.75756836 197.30957031 C-19.27553798 195.44234338 -18.79564393 193.57456268 -18.31860352 191.70605469 C-16.85738293 186.05456162 -15.25780623 180.45624799 -13.58984375 174.86328125 C-11.23892779 166.95957987 -9.13775673 159.00739065 -7.11953735 151.01306152 C-6.54598995 148.74727747 -5.96576072 146.48329788 -5.38354492 144.21972656 C-3.65969612 137.51638805 -1.94945303 130.81119472 -0.296875 124.08984375 C0.1972836 122.14306836 0.69202101 120.19643975 1.1875 118.25 C1.38851318 117.39510986 1.58952637 116.54021973 1.79663086 115.65942383 C3.42261883 109.39505762 6.25385662 104.23748162 11.95385742 100.83300781 C15.90507046 99.22442424 19.94359692 99.30622361 23.93359375 100.65234375 C28.62090466 103.00103932 30.85424452 106.2366509 33 111 C33.9672209 114.42432345 34.54633488 117.8854936 35.12109375 121.39453125 C35.30198547 122.42576614 35.4828772 123.45700104 35.66925049 124.51948547 C36.06246814 126.7657148 36.44995147 129.01295379 36.83236694 131.26104736 C37.88405308 137.43326597 38.98235783 143.59719872 40.078125 149.76171875 C40.19314047 150.41133575 40.30815594 151.06095276 40.42665672 151.73025513 C43.16611023 167.19018941 46.19997598 182.58970246 49.26272964 197.98830795 C49.97122457 201.55219949 50.67733015 205.11656426 51.38354492 208.6809082 C51.52113692 209.37528205 51.65872892 210.0696559 51.80049038 210.78507137 C52.07449892 212.16788985 52.34849445 213.55071091 52.62247658 214.93353462 C53.02318107 216.9555569 53.42414564 218.97752749 53.82511902 220.99949646 C55.83829911 231.15913548 57.82624751 241.32303201 59.75 251.5 C59.87979248 252.18642578 60.00958496 252.87285156 60.14331055 253.58007812 C61.90620298 262.93212867 63.59799582 272.29668901 65.27734375 281.6640625 C65.47665497 282.77517395 65.67596619 283.8862854 65.88131714 285.03106689 C66.86144672 290.49959468 67.83746934 295.96879942 68.80566406 301.43945312 C70.55872823 311.30286226 72.40452039 321.12686053 74.51603699 330.91995239 C76.77895152 341.49928888 78.60597685 352.16134246 80.5 362.81152344 C82.53065578 374.20619932 84.69216006 385.5527747 87.12060547 396.86962891 C87.83961201 400.22249195 88.5176441 403.58071431 89.16015625 406.94921875 C89.31419922 407.75423828 89.46824219 408.55925781 89.62695312 409.38867188 C89.92531303 410.96342347 90.21937223 412.53899426 90.50976562 414.11523438 C91.52037987 419.34740182 93.02112273 424.05012542 95 429 C95.33 429.99 95.66 430.98 96 432 C98.37625345 433.18391223 98.37625345 433.18391223 101 434 C101.99 434.33 102.98 434.66 104 435 C105.44495957 435.14176198 106.89484763 435.23635647 108.34535217 435.29992676 C109.65208342 435.35919971 109.65208342 435.35919971 110.98521328 435.4196701 C111.92603284 435.457136 112.8668524 435.4946019 113.83618164 435.53320312 C115.30988645 435.59565594 115.30988645 435.59565594 116.81336308 435.65937042 C126.12816091 436.03743383 135.44399647 436.24925989 144.76460457 436.41685486 C162.75377281 436.74367228 180.7383861 437.18957905 198.72265625 437.71875 C199.80088024 437.75036224 200.87910423 437.78197449 201.99000168 437.81454468 C209.68091201 438.04044355 217.371716 438.26984583 225.0625 438.5 C233.84498632 438.76266924 242.62751624 439.02376604 251.41015625 439.28125 C252.47300465 439.31244934 253.53585304 439.34364868 254.63090897 439.37579346 C277.41794666 440.04099505 300.20792056 440.54399672 323 441 C322.85705148 443.35440718 322.71023478 445.70847129 322.5612793 448.0625 C322.47984177 449.37347656 322.39840424 450.68445313 322.3144989 452.03515625 C321.83433489 458.08851689 320.87282306 464.02471924 319.8125 470 C319.58892822 471.26126709 319.36535645 472.52253418 319.13500977 473.82202148 C304.34272038 554.8083978 263.06823086 627.79364509 205.3125 685.8125 C204.61165283 686.51802002 203.91080566 687.22354004 203.1887207 687.95043945 C198.62124851 692.5039422 193.89236103 696.79978144 189 701 C187.90534931 701.96121482 186.81155284 702.92340362 185.71875 703.88671875 C172.25706213 715.64652092 157.87900818 726.11079708 143 736 C142.30664551 736.46341797 141.61329102 736.92683594 140.89892578 737.40429688 C86.07227496 773.79731162 21.43902939 795.8315669 -44 802 C-44.88042969 802.08612549 -45.76085937 802.17225098 -46.66796875 802.26098633 C-57.6467965 803.19956912 -68.62527884 803.18610477 -79.63720703 803.18530273 C-82.96530182 803.18747733 -86.29305778 803.20565813 -89.62109375 803.22460938 C-108.61200888 803.27594688 -127.22220578 801.96352351 -145.9375 798.6875 C-147.2054541 798.4694873 -148.4734082 798.25147461 -149.77978516 798.02685547 C-190.9435623 790.82177003 -231.05626804 778.50557383 -268.13574219 758.97705078 C-270.08462168 757.95565008 -272.04510611 756.95938844 -274.0078125 755.96484375 C-291.9269928 746.79537032 -308.77417183 735.88446946 -325 724 C-325.7002832 723.49049805 -326.40056641 722.98099609 -327.12207031 722.45605469 C-335.48403778 716.3575919 -343.42442643 710.06779056 -351 703 C-352.3282573 701.8275575 -353.66141541 700.66063783 -355 699.5 C-356.33366243 698.33370955 -357.6669831 697.16702821 -359 696 C-359.73476563 695.35933594 -360.46953125 694.71867188 -361.2265625 694.05859375 C-371.4375539 685.02835217 -381.21046779 675.42567889 -390 665 C-390.84304688 664.04609375 -391.68609375 663.0921875 -392.5546875 662.109375 C-406.5866128 646.17711929 -418.73753143 628.97277707 -430 611 C-430.39848145 610.37416016 -430.79696289 609.74832031 -431.20751953 609.10351562 C-470.17929481 547.80576956 -490.56239182 473.79053996 -490.20581055 401.40454102 C-490.18741048 397.54371585 -490.18530272 393.68313039 -490.18554688 389.82226562 C-490.18063431 387.32031046 -490.17480714 384.81835689 -490.16796875 382.31640625 C-490.16685593 381.18586319 -490.1657431 380.05532013 -490.16459656 378.89051819 C-490.10347738 368.42563163 -489.59815059 357.97127592 -488.01953125 347.6171875 C-487.82842773 346.36268799 -487.63732422 345.10818848 -487.44042969 343.81567383 C-487.23321289 342.51525146 -487.02599609 341.2148291 -486.8125 339.875 C-486.70329224 339.18779877 -486.59408447 338.50059753 -486.48156738 337.79257202 C-479.20088197 292.26606708 -464.85070814 250.03718868 -444 209 C-443.2562915 207.52756836 -443.2562915 207.52756836 -442.49755859 206.02539062 C-431.86529891 185.17667832 -418.77326508 165.1611191 -404 147 C-403.35546875 146.17757812 -402.7109375 145.35515625 -402.046875 144.5078125 C-394.75119969 135.22510367 -387.22682732 125.85906495 -378.68432617 117.68701172 C-376.96126036 115.96119859 -375.3936105 114.1603289 -373.81640625 112.30078125 C-370.03278994 107.95133938 -365.96543999 103.98976205 -361.75 100.0625 C-361.00057129 99.36157227 -360.25114258 98.66064453 -359.47900391 97.93847656 C-353.84199003 92.70315302 -348.04151698 87.7633399 -342 83 C-340.89813659 82.09700457 -339.79797922 81.19192477 -338.69921875 80.28515625 C-324.6119714 68.72436324 -309.72348692 58.10628812 -293.88378906 49.07421875 C-292.60126611 48.34286818 -291.32207748 47.60564627 -290.04589844 46.86328125 C-243.27746318 19.67390604 -191.53214272 1.99769621 -137.84716797 -4.64404297 C-135.87867411 -4.8901469 -133.91159385 -5.14773091 -131.94580078 -5.41455078 C-87.82198516 -11.34362584 -43.60738238 -8.00393453 0 0 Z M14 197 C13.79448013 197.78893646 13.58896027 198.57787292 13.37721252 199.39071655 C11.39399752 207.00326173 9.41012025 214.61563391 7.42558384 222.2278347 C6.40651348 226.13682804 5.38765818 230.0458771 4.36938477 233.95507812 C3.18576715 238.49888278 2.00141182 243.04249462 0.81640625 247.5859375 C0.61926466 248.34185747 0.42212307 249.09777744 0.21900749 249.87660408 C-2.00388812 258.39683706 -4.23750195 266.91410934 -6.49389648 275.42553711 C-6.69707583 276.19200184 -6.90025518 276.95846657 -7.10959148 277.7481575 C-8.0732654 281.38173641 -9.03852967 285.01488404 -10.00608826 288.64743042 C-12.1435909 296.68410576 -14.20535438 304.73608495 -16.1875 312.8125 C-18.17250611 320.85771049 -20.34819144 328.82060674 -22.67602539 336.77294922 C-25.19988142 345.49262114 -27.35784932 354.29783571 -29.53051758 363.11035156 C-31.23312439 369.99672446 -33.03750086 376.81817028 -35.046875 383.62109375 C-36.00804957 387.02853637 -36.87385395 390.44854601 -37.71788025 393.88642883 C-37.93472977 394.76953232 -38.15157928 395.6526358 -38.375 396.5625 C-38.57404434 397.37328506 -38.77308868 398.18407013 -38.97816467 399.01942444 C-40.39555017 404.72874381 -41.94972984 410.37940226 -43.60546875 416.0234375 C-47.80202599 430.53796571 -51.5497264 445.17321819 -55.3480835 459.7956543 C-56.12880941 462.79825971 -56.91239177 465.80011638 -57.69598961 468.80197334 C-61.78748084 484.47988446 -65.83712594 500.165745 -69.70872498 515.89967346 C-71.33462157 522.47686713 -73.09119124 528.99936154 -75 535.5 C-77.37350433 543.61989308 -79.47899429 551.78521593 -81.5 560 C-84.18180305 570.88349787 -87.09712047 581.66433233 -90.25732422 592.41748047 C-91.05725322 595.19908763 -91.81494239 597.99008292 -92.56640625 600.78515625 C-92.82736084 601.74107666 -93.08831543 602.69699707 -93.35717773 603.68188477 C-93.85435635 605.50666465 -94.34273515 607.33387442 -94.82055664 609.16381836 C-96.35394439 614.72486828 -97.99520893 619.19712536 -103.1875 622.3125 C-108.61966958 623.64036367 -113.16395525 623.83141649 -118.3125 621.5 C-124.12863243 616.08964425 -125.73924127 609.0116026 -127.11328125 601.421875 C-127.37586479 600.05422752 -127.37586479 600.05422752 -127.64375305 598.65895081 C-128.2109932 595.6912684 -128.76171168 592.72077545 -129.3125 589.75 C-129.70697568 587.67189196 -130.10266002 585.59401302 -130.49951172 583.51635742 C-131.29880166 579.32429136 -132.09221903 575.13118585 -132.88037109 570.93701172 C-134.28919932 563.44895821 -135.74098694 555.9694723 -137.20028687 548.49111938 C-137.6268174 546.30317743 -138.05153887 544.1148909 -138.47583008 541.92651367 C-140.58397424 531.06404788 -142.75694973 520.21518153 -144.94207764 509.36798096 C-146.98180674 499.23127341 -148.93792629 489.08194437 -150.83398438 478.91744995 C-153.88277319 462.57516359 -157.15830519 446.28484123 -160.5 430 C-163.68476536 414.47668727 -166.83599512 398.9516535 -169.75 383.375 C-169.88662048 382.64471588 -170.02324097 381.91443176 -170.16400146 381.16201782 C-170.70363933 378.27495928 -171.24277629 375.3878079 -171.78109741 372.50050354 C-173.35812334 364.05559175 -174.98670974 355.62071344 -176.625 347.1875 C-176.7719632 346.43045776 -176.91892639 345.67341553 -177.07034302 344.89343262 C-179.05653102 334.67670322 -181.12821644 324.48153838 -183.28637695 314.29956055 C-185.40315472 304.23886018 -187.22144713 294.12523062 -189 284 C-189.66 284 -190.32 284 -191 284 C-191.45213867 285.14549316 -191.90427734 286.29098633 -192.37011719 287.47119141 C-205.50029457 320.73150605 -218.73071604 353.94746214 -232.18888855 387.07652283 C-234.04213068 391.63898862 -235.89262858 396.20255191 -237.74015808 400.76733398 C-238.90477432 403.64454388 -240.07049037 406.5213075 -241.23635864 409.39801025 C-241.77464801 410.72688168 -242.31249173 412.05593374 -242.849823 413.38519287 C-244.55227037 417.59607652 -246.26939113 421.80061335 -248 426 C-248.25661407 426.6245105 -248.51322815 427.249021 -248.77761841 427.89245605 C-249.55593044 429.77885453 -250.34302968 431.6613478 -251.1328125 433.54296875 C-251.59187988 434.64278076 -252.05094727 435.74259277 -252.52392578 436.87573242 C-259.93944247 452.5714597 -272.7433337 461.43405508 -288.5546875 467.32421875 C-297.77638581 470.01152347 -306.70723696 470.22852536 -316.2734375 470.16015625 C-317.67844599 470.15478416 -319.08345496 470.1495384 -320.48846436 470.14440918 C-338.2070781 470.05180205 -355.91692014 469.47026014 -373.62615967 468.92712402 C-379.15164964 468.75795751 -384.67725367 468.59374431 -390.203125 468.4375 C-390.97235794 468.41568665 -391.74159088 468.39387329 -392.53413391 468.37139893 C-410.02227528 467.88754139 -427.50666978 467.89739751 -445 468 C-444.33114455 475.82751687 -444.33114455 475.82751687 -442.6875 483.49609375 C-442.42146973 484.45290039 -442.15543945 485.40970703 -441.88134766 486.39550781 C-441.59050293 487.39936523 -441.2996582 488.40322266 -441 489.4375 C-440.53859619 491.04963379 -440.53859619 491.04963379 -440.06787109 492.69433594 C-425.67952201 542.22002087 -403.79963893 589.57716532 -370 629 C-369.18660156 629.98484375 -368.37320313 630.9696875 -367.53515625 631.984375 C-356.29104094 645.57459604 -344.21525166 658.31619808 -331 670 C-330.46616699 670.47856445 -329.93233398 670.95712891 -329.38232422 671.45019531 C-276.85690135 718.44250142 -208.68493066 750.48593221 -138.98925781 760.56201172 C-137.05406454 760.84555768 -135.12085734 761.14316244 -133.19042969 761.45751953 C-117.39544792 764.01819601 -101.71475674 764.28978616 -85.75 764.3125 C-84.23466675 764.31787781 -84.23466675 764.31787781 -82.6887207 764.32336426 C-68.35452017 764.35071294 -54.24815697 763.54688294 -40 762 C-39.05994614 761.90009766 -38.11989227 761.80019531 -37.15135193 761.69726562 C22.19639072 755.33294391 80.000345 732.90253534 129 699 C129.60473145 698.58218262 130.20946289 698.16436523 130.83251953 697.73388672 C138.85395154 692.16410264 146.54379526 686.31536467 154 680 C154.56783203 679.52240234 155.13566406 679.04480469 155.72070312 678.55273438 C164.86327563 670.86719065 164.86327563 670.86719065 173.4375 662.5625 C175.17065598 660.82934402 177.00188648 659.26793953 178.875 657.6875 C182.76710084 654.32478453 186.14011599 650.63882341 189.53125 646.77734375 C191.25564727 644.83739683 192.99015664 642.94176465 194.78125 641.06640625 C202.89217448 632.54871931 210.06137777 623.49094365 217 614 C217.57008789 613.22237305 218.14017578 612.44474609 218.72753906 611.64355469 C247.27670677 572.44623287 267.43518474 528.72794178 277.9375 481.375 C278.14930908 480.42085205 278.36111816 479.4667041 278.5793457 478.48364258 C278.76843506 477.5892749 278.95752441 476.69490723 279.15234375 475.7734375 C279.31726318 474.99403809 279.48218262 474.21463867 279.65209961 473.41162109 C280.05969252 470.58621562 280.0217604 467.85145182 280 465 C266.41256492 464.94489187 252.83940813 465.07050095 239.25529861 465.37030602 C234.98100323 465.46440516 230.70659711 465.55295683 226.43219185 465.64190197 C224.17189645 465.6889529 221.91160569 465.73622726 219.6513195 465.78371906 C151.87048905 467.20584636 151.87048905 467.20584636 124.15222168 467.29956055 C121.82675768 467.30809141 119.50130592 467.32164704 117.17590332 467.34057617 C114.0467464 467.3639031 110.91828807 467.36723554 107.7890625 467.36328125 C106.49166641 467.37697502 106.49166641 467.37697502 105.1680603 467.39094543 C92.31371062 467.29322568 81.36575125 461.89881127 72.0703125 453.21875 C61.75864013 442.16775018 59.51591477 426.70839235 56.75 412.375 C56.45141088 410.85337134 56.15249159 409.33180744 55.85327148 407.81030273 C49.87357193 377.26554218 44.37456255 346.62739922 38.81640625 316.00390625 C38.21108776 312.66924353 37.60563863 309.33460459 37 306 C36.80407257 304.92114532 36.80407257 304.92114532 36.60418701 303.82049561 C34.42646587 291.83645815 32.23400445 279.86800648 29.65698242 267.96289062 C26.95881497 255.32989824 24.68622249 242.606447 22.30198669 229.91139221 C20.90881712 222.49954948 19.49015546 215.09277556 18.0625 207.6875 C17.85117432 206.59107178 17.63984863 205.49464355 17.42211914 204.36499023 C16.94856958 201.90989839 16.47459218 199.45489047 16 197 C15.34 197 14.68 197 14 197 Z " fill="#FCFDFD" transform="translate(584,100)"/>
<path d="M0 0 C1.23814453 0.22671387 2.47628906 0.45342773 3.75195312 0.68701172 C26.01611573 4.89855465 47.32211181 12.23396576 68.5078125 20.140625 C69.14547043 20.37825562 69.78312836 20.61588623 70.44010925 20.86071777 C77.75585441 23.6172973 84.88767678 26.76167674 92 30 C93.16909912 30.5252124 93.16909912 30.5252124 94.36181641 31.06103516 C128.28984604 46.37190522 160.23943964 67.18855769 188 92 C189.34578125 93.17949219 189.34578125 93.17949219 190.71875 94.3828125 C197.40690699 100.35987234 203.78502405 106.65766082 210.14993286 112.97470093 C211.15758155 113.97430971 212.16670601 114.97243355 213.17745972 115.96890259 C219.92403108 122.63018655 226.09575682 129.58007914 232 137 C232.86338597 138.02755195 233.73177736 139.0509651 234.609375 140.06640625 C264.093298 174.44638215 286.55043751 215.57478283 302 258 C302.51191895 259.39992188 302.51191895 259.39992188 303.03417969 260.828125 C314.73243417 293.24740248 321.22993528 326.81068759 325 361 C325.14791992 362.21381348 325.14791992 362.21381348 325.29882812 363.45214844 C326.23228532 371.98235837 326.15095653 380.52582776 326.13037109 389.09570312 C326.1250394 391.73052806 326.13032833 394.36518043 326.13671875 397 C326.14754351 421.26228243 326.14754351 421.26228243 324 432 C311.13 432 298.26 432 285 432 C285.165 428.65875 285.33 425.3175 285.5 421.875 C286.47054708 399.50553074 286.60281271 377.26047533 284 355 C283.89816406 354.10442383 283.79632812 353.20884766 283.69140625 352.28613281 C276.82144644 293.31897782 255.12967419 237.58578197 221 189 C220.2080634 187.85044633 219.4164004 186.70070413 218.625 185.55078125 C209.65668442 172.64392257 199.65140748 160.54836811 189 149 C187.74316406 147.58847656 187.74316406 147.58847656 186.4609375 146.1484375 C179.72730483 138.60794788 172.55429806 131.71248946 165 125 C164.46036621 124.51563477 163.92073242 124.03126953 163.36474609 123.53222656 C153.4325416 114.64754767 142.86220575 106.70942453 132 99 C131.04770508 98.32372559 131.04770508 98.32372559 130.07617188 97.63378906 C86.05886106 66.68638228 34.68695092 46.51313255 -18.26611328 37.63330078 C-20.64050059 37.23058333 -23.01184706 36.80915444 -25.37841797 36.36279297 C-63.04113744 29.26838362 -104.29498554 30.57830405 -142 37 C-143.33463401 37.2218509 -144.66926945 37.44369321 -146.00390625 37.66552734 C-203.77607753 47.40368977 -259.36683056 70.29224217 -306 106 C-306.58056152 106.44166504 -307.16112305 106.88333008 -307.75927734 107.33837891 C-326.74577477 121.82821353 -344.44616212 137.83624829 -360 156 C-360.8891891 157.0209499 -361.77850192 158.04179206 -362.66796875 159.0625 C-407.10621072 210.87266738 -436.06330371 273.33196078 -447.1875 340.625 C-447.34250977 341.55256104 -447.49751953 342.48012207 -447.65722656 343.43579102 C-450.39236594 360.8462343 -451.31720327 378.1481854 -451.1875 395.75 C-451.18063012 397.67675656 -451.17412324 399.60351446 -451.16796875 401.53027344 C-451.1043909 415.3691979 -450.77079505 429.18074582 -450 443 C-458.43989758 443.84647096 -466.77098793 444.12756916 -475.25 444.0625 C-476.38824219 444.05798828 -477.52648437 444.05347656 -478.69921875 444.04882812 C-481.46620409 444.03720214 -484.23307158 444.02086431 -487 444 C-487.495 445.98 -487.495 445.98 -488 448 C-489.88351583 432.4441868 -490.28295809 417.06549313 -490.20581055 401.40454102 C-490.18741048 397.54371585 -490.18530272 393.68313039 -490.18554688 389.82226562 C-490.18063431 387.32031046 -490.17480714 384.81835689 -490.16796875 382.31640625 C-490.16685593 381.18586319 -490.1657431 380.05532013 -490.16459656 378.89051819 C-490.10347738 368.42563163 -489.59815059 357.97127592 -488.01953125 347.6171875 C-487.82842773 346.36268799 -487.63732422 345.10818848 -487.44042969 343.81567383 C-487.23321289 342.51525146 -487.02599609 341.2148291 -486.8125 339.875 C-486.70329224 339.18779877 -486.59408447 338.50059753 -486.48156738 337.79257202 C-479.20088197 292.26606708 -464.85070814 250.03718868 -444 209 C-443.2562915 207.52756836 -443.2562915 207.52756836 -442.49755859 206.02539062 C-431.86529891 185.17667832 -418.77326508 165.1611191 -404 147 C-403.35546875 146.17757812 -402.7109375 145.35515625 -402.046875 144.5078125 C-394.75119969 135.22510367 -387.22682732 125.85906495 -378.68432617 117.68701172 C-376.96126036 115.96119859 -375.3936105 114.1603289 -373.81640625 112.30078125 C-370.03278994 107.95133938 -365.96543999 103.98976205 -361.75 100.0625 C-361.00057129 99.36157227 -360.25114258 98.66064453 -359.47900391 97.93847656 C-353.84199003 92.70315302 -348.04151698 87.7633399 -342 83 C-340.89813659 82.09700457 -339.79797922 81.19192477 -338.69921875 80.28515625 C-324.6119714 68.72436324 -309.72348692 58.10628812 -293.88378906 49.07421875 C-292.60126611 48.34286818 -291.32207748 47.60564627 -290.04589844 46.86328125 C-243.27746318 19.67390604 -191.53214272 1.99769621 -137.84716797 -4.64404297 C-135.87867411 -4.8901469 -133.91159385 -5.14773091 -131.94580078 -5.41455078 C-87.82198516 -11.34362584 -43.60738238 -8.00393453 0 0 Z " fill="#FCD154" transform="translate(584,100)"/>
<path d="M0 0 C0.84061981 0.00141495 1.68123962 0.0028299 2.54733276 0.00428772 C5.23732025 0.00989388 7.92722509 0.02244739 10.6171875 0.03515625 C12.43880088 0.04017046 14.26041557 0.0447335 16.08203125 0.04882812 C20.55211527 0.05986531 25.02213736 0.07713405 29.4921875 0.09765625 C28.9830241 7.25144448 28.06236179 14.11508763 26.4296875 21.09765625 C26.21417236 22.02843994 25.99865723 22.95922363 25.77661133 23.91821289 C22.86793645 36.12700619 19.26280838 48.13104736 15.4921875 60.09765625 C15.03054199 61.56887939 15.03054199 61.56887939 14.55957031 63.06982422 C-4.74364991 123.68193572 -40.57186119 177.08340903 -85.1953125 221.91015625 C-85.89615967 222.61567627 -86.59700684 223.32119629 -87.3190918 224.0480957 C-91.88656399 228.60159845 -96.61545147 232.89743769 -101.5078125 237.09765625 C-102.60246319 238.05887107 -103.69625966 239.02105987 -104.7890625 239.984375 C-118.25075037 251.74417717 -132.62880432 262.20845333 -147.5078125 272.09765625 C-148.20116699 272.56107422 -148.89452148 273.02449219 -149.60888672 273.50195312 C-204.43553754 309.89496787 -269.06878311 331.92922315 -334.5078125 338.09765625 C-335.38824219 338.18378174 -336.26867187 338.26990723 -337.17578125 338.35864258 C-348.154609 339.29722537 -359.13309134 339.28376102 -370.14501953 339.28295898 C-373.47311432 339.28513358 -376.80087028 339.30331438 -380.12890625 339.32226562 C-399.11982138 339.37360313 -417.73001828 338.06117976 -436.4453125 334.78515625 C-437.7132666 334.56714355 -438.9812207 334.34913086 -440.28759766 334.12451172 C-481.4513748 326.91942628 -521.56408054 314.60323008 -558.64355469 295.07470703 C-560.59243418 294.05330633 -562.55291861 293.05704469 -564.515625 292.0625 C-582.4348053 282.89302657 -599.28198433 271.98212571 -615.5078125 260.09765625 C-616.2080957 259.5881543 -616.90837891 259.07865234 -617.62988281 258.55371094 C-625.99185028 252.45524815 -633.93223893 246.16544681 -641.5078125 239.09765625 C-642.8360698 237.92521375 -644.16922791 236.75829408 -645.5078125 235.59765625 C-646.84147493 234.4313658 -648.1747956 233.26468446 -649.5078125 232.09765625 C-650.24257813 231.45699219 -650.97734375 230.81632813 -651.734375 230.15625 C-661.9453664 221.12600842 -671.71828029 211.52333514 -680.5078125 201.09765625 C-681.35085938 200.14375 -682.19390625 199.18984375 -683.0625 198.20703125 C-697.0944253 182.27477554 -709.24534393 165.07043332 -720.5078125 147.09765625 C-720.90629395 146.47181641 -721.30477539 145.84597656 -721.71533203 145.20117188 C-744.42181005 109.48671152 -759.8196562 69.63277147 -770.1328125 28.72265625 C-770.30138763 28.06038025 -770.46996277 27.39810425 -770.64364624 26.71575928 C-772.67006274 18.67924566 -773.7462175 11.47520128 -774.5078125 3.09765625 C-761.6378125 3.09765625 -748.7678125 3.09765625 -735.5078125 3.09765625 C-734.1878125 9.03765625 -732.8678125 14.97765625 -731.5078125 21.09765625 C-725.59065631 44.4927385 -717.92471905 67.30962271 -707.5078125 89.09765625 C-707.07629883 90.00837891 -706.64478516 90.91910156 -706.20019531 91.85742188 C-693.72199156 118.02952077 -678.41903479 143.04020199 -659.5078125 165.09765625 C-658.69441406 166.0825 -657.88101563 167.06734375 -657.04296875 168.08203125 C-646.10386986 181.3031681 -634.41898638 193.78356768 -621.5078125 205.09765625 C-620.44529319 206.04685338 -619.38279375 206.99607276 -618.3203125 207.9453125 C-566.0306457 254.16441112 -498.50945483 285.68237318 -429.49707031 295.65966797 C-427.56187704 295.94321393 -425.62866984 296.24081869 -423.69824219 296.55517578 C-407.90326042 299.11585226 -392.22256924 299.38744241 -376.2578125 299.41015625 C-374.74247925 299.41553406 -374.74247925 299.41553406 -373.1965332 299.42102051 C-358.86233267 299.44836919 -344.75596947 298.64453919 -330.5078125 297.09765625 C-329.56775864 296.99775391 -328.62770477 296.89785156 -327.65916443 296.79492188 C-268.31142178 290.43060016 -210.5074675 268.00019159 -161.5078125 234.09765625 C-160.90308105 233.67983887 -160.29834961 233.26202148 -159.67529297 232.83154297 C-151.65386096 227.26175889 -143.96401724 221.41302092 -136.5078125 215.09765625 C-135.93998047 214.62005859 -135.37214844 214.14246094 -134.78710938 213.65039062 C-125.64831758 205.96888328 -125.64831758 205.96888328 -117.078125 197.66796875 C-115.30178483 195.89162858 -113.42366661 194.28462571 -111.5078125 192.66015625 C-108.2208159 189.81768681 -105.39872785 186.81164789 -102.59765625 183.49609375 C-100.97982551 181.63936838 -99.33853605 179.85151322 -97.63671875 178.07421875 C-89.20015682 169.2484163 -81.69911917 159.95971973 -74.5078125 150.09765625 C-73.9391748 149.32147949 -73.37053711 148.54530273 -72.78466797 147.74560547 C-42.75588157 106.51992857 -21.9509645 60.40639388 -12.45996094 10.27612305 C-12.23211914 9.09445557 -12.00427734 7.91278809 -11.76953125 6.6953125 C-11.57319092 5.63836182 -11.37685059 4.58141113 -11.17456055 3.49243164 C-10.95453369 2.70215576 -10.73450684 1.91187988 -10.5078125 1.09765625 C-7.22889325 -0.54180338 -3.60167716 -0.02264553 0 0 Z " fill="#FCD154" transform="translate(874.5078125,563.90234375)"/>
<path d="M0 0 C0.66 0.33 1.32 0.66 2 1 C0.625 3 0.625 3 -1 5 C-1.66 5 -2.32 5 -3 5 C-3.309375 5.8353125 -3.309375 5.8353125 -3.625 6.6875 C-5.17121526 9.28795294 -7.06917296 10.84752926 -9.421875 12.71484375 C-11.78763236 14.64141348 -13.87182182 16.81725315 -16 19 C-17.66666667 20.66666667 -19.33333333 22.33333333 -21 24 C-21.66 23.67 -22.32 23.34 -23 23 C-15.41 15.41 -7.82 7.82 0 0 Z " fill="#1C3852" transform="translate(253,225)"/>
<path d="M0 0 C0.33 0.99 0.66 1.98 1 3 C-0.21484375 4.82421875 -0.21484375 4.82421875 -1.9375 6.6875 C-2.50339844 7.31011719 -3.06929687 7.93273437 -3.65234375 8.57421875 C-4.09707031 9.04472656 -4.54179688 9.51523437 -5 10 C-5.99 9.67 -6.98 9.34 -8 9 C-5.36 6.03 -2.72 3.06 0 0 Z " fill="#ECD058" transform="translate(782,736)"/>
<path d="M0 0 C0.66 0 1.32 0 2 0 C2 1.65 2 3.3 2 5 C1.01 5.33 0.02 5.66 -1 6 C-1 6.99 -1 7.98 -1 9 C-1.66 9 -2.32 9 -3 9 C-2.01 6.03 -1.02 3.06 0 0 Z " fill="#344F6A" transform="translate(393,384)"/>
<path d="M0 0 C0 3 0 3 -1.53125 4.60546875 C-2.1809375 5.12753906 -2.830625 5.64960937 -3.5 6.1875 C-4.1496875 6.71730469 -4.799375 7.24710938 -5.46875 7.79296875 C-5.9740625 8.19128906 -6.479375 8.58960938 -7 9 C-7.66 8.34 -8.32 7.68 -9 7 C-6.03 4.69 -3.06 2.38 0 0 Z " fill="#E8CC59" transform="translate(774,846)"/>
<path d="M0 0 C0.33 0.99 0.66 1.98 1 3 C-0.32 4.32 -1.64 5.64 -3 7 C-3.99 6.67 -4.98 6.34 -6 6 C-4.02 4.02 -2.04 2.04 0 0 Z " fill="#E4C95B" transform="translate(758,761)"/>
<path d="M0 0 C0.33 0.66 0.66 1.32 1 2 C-0.65 3.98 -2.3 5.96 -4 8 C-4.66 7.67 -5.32 7.34 -6 7 C-4.02 4.69 -2.04 2.38 0 0 Z " fill="#DCC45B" transform="translate(773,746)"/>
</svg>
