<?xml version="1.0" encoding="UTF-8"?>
<svg version="1.1" xmlns="http://www.w3.org/2000/svg" width="320" height="320">
<path d="M0 0 C11.44411555 9.85609348 21.25123022 20.79484133 29.31787109 33.57763672 C29.88054687 34.46829834 29.88054687 34.46829834 30.45458984 35.37695312 C35.32958545 43.2364277 39.26651119 51.3383581 42.63037109 59.95263672 C42.94369385 60.74089844 43.2570166 61.52916016 43.57983398 62.34130859 C49.40160826 77.93240273 51.01836426 93.07243836 50.94921875 109.60717773 C50.94291109 112.74524073 50.98996446 115.87949093 51.04052734 119.01708984 C51.17339262 140.33821268 45.99964301 159.63905616 36.31787109 178.57763672 C35.99560547 179.20992187 35.67333984 179.84220703 35.34130859 180.49365234 C30.62337114 189.57472302 24.84695689 197.72649803 18.31787109 205.57763672 C17.87056641 206.21314453 17.42326172 206.84865234 16.96240234 207.50341797 C14.73902025 208.95574594 13.04469031 208.78935277 10.49121094 208.29052734 C5.55737601 206.67214968 1.12737853 203.88011109 -3.36962891 201.32763672 C-16.2494757 194.18933036 -29.4191937 187.93776905 -42.84326172 181.8894043 C-45.82211161 180.51295431 -48.75431178 179.05915988 -51.68212891 177.57763672 C-50.21891495 174.19632363 -48.32656994 172.05792261 -45.74462891 169.45263672 C-28.60601738 150.60016404 -21.62655475 128.34983594 -22.51171875 103.22949219 C-23.77780705 83.52712674 -34.84550268 64.61092428 -48.99462891 51.26513672 C-67.02265629 36.27340869 -87.09273835 31.38563017 -110.08447266 32.78466797 C-130.46887525 34.9095026 -148.54606013 46.1222308 -161.68212891 61.57763672 C-174.79713982 79.63354584 -181.0766831 100.4632598 -177.90844727 122.63330078 C-175.03288936 140.59404747 -167.16818607 156.33616213 -154.56494141 169.55419922 C-150.6624115 173.74820439 -150.6624115 173.74820439 -150.73022461 176.60083008 C-152.13836324 179.52509233 -153.95040374 179.96933016 -156.91259766 181.20654297 C-158.01514893 181.67866211 -159.1177002 182.15078125 -160.25366211 182.63720703 C-162.04356567 183.38115723 -162.04356567 183.38115723 -163.86962891 184.14013672 C-166.34994697 185.20050969 -168.82477231 186.27340074 -171.29931641 187.34716797 C-171.92375137 187.61681366 -172.54818634 187.88645935 -173.19154358 188.16427612 C-179.05076654 190.70690834 -184.78835579 193.46058982 -190.49462891 196.32763672 C-191.38867432 196.77526367 -192.28271973 197.22289062 -193.20385742 197.68408203 C-197.21126106 199.71790205 -201.1520898 201.8138774 -205.01416016 204.11279297 C-205.66344482 204.49918945 -206.31272949 204.88558594 -206.98168945 205.28369141 C-208.66762422 206.30557938 -210.33593785 207.35638882 -212.00244141 208.40966797 C-214.68212891 209.57763672 -214.68212891 209.57763672 -216.66772461 208.84375 C-222.74866009 205.02170038 -226.51030342 198.03783669 -230.11962891 192.01513672 C-230.83348755 190.82887695 -230.83348755 190.82887695 -231.56176758 189.61865234 C-239.00207395 177.12105588 -244.6801905 164.56240019 -248.68212891 150.57763672 C-248.89530762 149.86559082 -249.10848633 149.15354492 -249.328125 148.41992188 C-255.89224673 125.65631813 -255.58985832 96.20386762 -248.68212891 73.57763672 C-248.36066895 72.49095703 -248.36066895 72.49095703 -248.03271484 71.38232422 C-244.74479031 60.54700961 -240.03262563 50.53117384 -234.68212891 40.57763672 C-234.12783203 39.51802734 -233.57353516 38.45841797 -233.00244141 37.36669922 C-214.65490792 3.91976019 -180.40013788 -18.84726326 -144.81494141 -30.29345703 C-94.29560317 -44.82246771 -40.1730488 -33.96925723 0 0 Z " fill="#FBCF54" transform="translate(260.68212890625,43.42236328125)"/>
<path d="M0 0 C1.17304688 0.57878906 2.34609375 1.15757812 3.5546875 1.75390625 C17.39934926 8.90005383 17.39934926 8.90005383 22 14 C22 18 22 18 20.77734375 19.60546875 C0.35435049 37.1666413 -27.57943157 47.00301566 -54.38671875 47.23828125 C-55.28381058 47.246353 -56.1809024 47.25442474 -57.10517883 47.26274109 C-59.00377509 47.27652398 -60.90239552 47.28727184 -62.80102539 47.29516602 C-64.70214339 47.30658269 -66.60323204 47.3268666 -68.50415039 47.35668945 C-100.85200548 47.86252208 -130.75047598 38.56357632 -156 18 C-155.44859526 14.32396841 -154.23756267 12.97758932 -151.3125 10.75 C-108.48563654 -20.89579943 -47.07031086 -23.40689845 0 0 Z " fill="#2E2E2E" transform="translate(228,262)"/>
</svg>
