<?xml version="1.0" encoding="UTF-8"?>
<svg version="1.1" xmlns="http://www.w3.org/2000/svg" width="32" height="32">
<path d="M0 0 C4.23301121 2.82200747 7.17159664 5.95228992 8.8125 10.875 C9.32698832 17.15175752 8.74292664 19.9619667 4.8125 24.875 C-0.9375 23 -0.9375 23 -3.1875 21.875 C-2.8575 20.988125 -2.5275 20.10125 -2.1875 19.1875 C-1.25393765 16.09507472 -0.67267723 14.04974042 -1.1875 10.875 C-2.72563421 8.84603788 -2.72563421 8.84603788 -5.1875 7.875 C-8.31430099 7.86825074 -8.31430099 7.86825074 -11.1875 8.875 C-13.77522586 12.7565888 -13.06469799 14.40926477 -12.1875 18.875 C-11.8575 19.865 -11.5275 20.855 -11.1875 21.875 C-16.8125 24.875 -16.8125 24.875 -20.1875 24.875 C-23.0658634 20.07772766 -23.97644395 16.34281986 -23.1875 10.875 C-21.32893173 5.60905656 -18.58435804 3.08104232 -14.1875 -0.125 C-9.20670617 -1.78526461 -4.88476371 -1.72403425 0 0 Z " fill="#FACE53" transform="translate(23.1875,1.125)"/>
<path d="M0 0 C1.2375 0.7425 1.2375 0.7425 2.5 1.5 C2.5 2.16 2.5 2.82 2.5 3.5 C-3.21712243 6.54102257 -7.18018797 6.82275136 -13.5 5.5 C-14.49 5.17 -15.48 4.84 -16.5 4.5 C-16.17012361 2.02592708 -15.92027913 0.8362233 -13.9375 -0.75 C-8.81942766 -2.32479149 -4.82038199 -2.06587799 0 0 Z " fill="#31302E" transform="translate(23.5,25.5)"/>
</svg>
